{
	"asset":{
		"generator":"Khronos glTF Blender I/O v4.1.63",
		"version":"2.0"
	},
	"scene":0,
	"scenes":[
		{
			"name":"Scene",
			"nodes":[
				0
			]
		}
	],
	"nodes":[
		{
			"mesh":0,
			"name":"Text",
			"rotation":[
				0.7071068286895752,
				0,
				0,
				0.7071068286895752
			],
			"translation":[
				0,
				5,
				0
			]
		}
	],
	"materials":[
		{
			"doubleSided":true,
			"name":"Material.001",
			"pbrMetallicRoughness":{
				"baseColorFactor":[
					0,
					0.8036819696426392,
					0.6917998194694519,
					1
				],
				"metallicFactor":0,
				"roughnessFactor":0.5
			}
		}
	],
	"meshes":[
		{
			"name":"Text",
			"primitives":[
				{
					"attributes":{
						"POSITION":0,
						"NORMAL":1,
						"TEXCOORD_0":2
					},
					"indices":3,
					"material":0
				}
			]
		}
	],
	"accessors":[
		{
			"bufferView":0,
			"componentType":5126,
			"count":18069,
			"max":[
				9.246999740600586,
				0.25,
				4.008999824523926
			],
			"min":[
				0,
				-0.25,
				-0.6860000491142273
			],
			"type":"VEC3"
		},
		{
			"bufferView":1,
			"componentType":5126,
			"count":18069,
			"type":"VEC3"
		},
		{
			"bufferView":2,
			"componentType":5126,
			"count":18069,
			"type":"VEC2"
		},
		{
			"bufferView":3,
			"componentType":5123,
			"count":52968,
			"type":"SCALAR"
		}
	],
	"bufferViews":[
		{
			"buffer":0,
			"byteLength":216828,
			"byteOffset":0,
			"target":34962
		},
		{
			"buffer":0,
			"byteLength":216828,
			"byteOffset":216828,
			"target":34962
		},
		{
			"buffer":0,
			"byteLength":144552,
			"byteOffset":433656,
			"target":34962
		},
		{
			"buffer":0,
			"byteLength":105936,
			"byteOffset":578208,
			"target":34963
		}
	],
	"buffers":[
		{
			"byteLength":684144,
			"uri":"Academi.bin"
		}
	]
}
