{
	"asset":{
		"generator":"Khronos glTF Blender I/O v4.1.63",
		"version":"2.0"
	},
	"scene":0,
	"scenes":[
		{
			"name":"Scene",
			"nodes":[
				0
			]
		}
	],
	"nodes":[
		{
			"mesh":0,
			"name":"Text",
			"rotation":[
				0.7071068286895752,
				0,
				0,
				0.7071068286895752
			],
			"translation":[
				0,
				5,
				0
			]
		}
	],
	"materials":[
		{
			"doubleSided":true,
			"name":"Material.001",
			"pbrMetallicRoughness":{
				"baseColorFactor":[
					0.8011085987091064,
					0,
					0.01075360830873251,
					1
				],
				"metallicFactor":0,
				"roughnessFactor":0.5
			}
		}
	],
	"meshes":[
		{
			"name":"Text",
			"primitives":[
				{
					"attributes":{
						"POSITION":0,
						"NORMAL":1,
						"TEXCOORD_0":2
					},
					"indices":3,
					"material":0
				}
			]
		}
	],
	"accessors":[
		{
			"bufferView":0,
			"componentType":5126,
			"count":20833,
			"max":[
				7.693999767303467,
				0.25,
				5.008999824523926
			],
			"min":[
				0,
				-0.25,
				-0.6860000491142273
			],
			"type":"VEC3"
		},
		{
			"bufferView":1,
			"componentType":5126,
			"count":20833,
			"type":"VEC3"
		},
		{
			"bufferView":2,
			"componentType":5126,
			"count":20833,
			"type":"VEC2"
		},
		{
			"bufferView":3,
			"componentType":5123,
			"count":61080,
			"type":"SCALAR"
		}
	],
	"bufferViews":[
		{
			"buffer":0,
			"byteLength":249996,
			"byteOffset":0,
			"target":34962
		},
		{
			"buffer":0,
			"byteLength":249996,
			"byteOffset":249996,
			"target":34962
		},
		{
			"buffer":0,
			"byteLength":166664,
			"byteOffset":499992,
			"target":34962
		},
		{
			"buffer":0,
			"byteLength":122160,
			"byteOffset":666656,
			"target":34963
		}
	],
	"buffers":[
		{
			"byteLength":788816,
			"uri":"Adeilad%20Deioniol.bin"
		}
	]
}
