{
	"asset":{
		"generator":"Khronos glTF Blender I/O v4.1.63",
		"version":"2.0"
	},
	"scene":0,
	"scenes":[
		{
			"name":"Scene",
			"nodes":[
				0
			]
		}
	],
	"nodes":[
		{
			"mesh":0,
			"name":"Text",
			"rotation":[
				0.7071068286895752,
				0,
				0,
				0.7071068286895752
			],
			"translation":[
				0,
				5,
				0
			]
		}
	],
	"materials":[
		{
			"doubleSided":true,
			"name":"Material.001",
			"pbrMetallicRoughness":{
				"baseColorFactor":[
					0.8034235239028931,
					0.5613563060760498,
					0,
					1
				],
				"metallicFactor":0,
				"roughnessFactor":0.5
			}
		}
	],
	"meshes":[
		{
			"name":"Text",
			"primitives":[
				{
					"attributes":{
						"POSITION":0,
						"NORMAL":1,
						"TEXCOORD_0":2
					},
					"indices":3,
					"material":0
				}
			]
		}
	],
	"accessors":[
		{
			"bufferView":0,
			"componentType":5126,
			"count":21612,
			"max":[
				9.746999740600586,
				0.25,
				4.008999824523926
			],
			"min":[
				0.05000000074505806,
				-0.25,
				-0.6820000410079956
			],
			"type":"VEC3"
		},
		{
			"bufferView":1,
			"componentType":5126,
			"count":21612,
			"type":"VEC3"
		},
		{
			"bufferView":2,
			"componentType":5126,
			"count":21612,
			"type":"VEC2"
		},
		{
			"bufferView":3,
			"componentType":5123,
			"count":63432,
			"type":"SCALAR"
		}
	],
	"bufferViews":[
		{
			"buffer":0,
			"byteLength":259344,
			"byteOffset":0,
			"target":34962
		},
		{
			"buffer":0,
			"byteLength":259344,
			"byteOffset":259344,
			"target":34962
		},
		{
			"buffer":0,
			"byteLength":172896,
			"byteOffset":518688,
			"target":34962
		},
		{
			"buffer":0,
			"byteLength":126864,
			"byteOffset":691584,
			"target":34963
		}
	],
	"buffers":[
		{
			"byteLength":818448,
			"uri":"Brambell.bin"
		}
	]
}
