{
	"asset":{
		"generator":"Khronos glTF Blender I/O v4.1.63",
		"version":"2.0"
	},
	"scene":0,
	"scenes":[
		{
			"name":"Scene",
			"nodes":[
				0
			]
		}
	],
	"nodes":[
		{
			"mesh":0,
			"name":"Text",
			"rotation":[
				0.7071068286895752,
				0,
				0,
				0.7071068286895752
			],
			"translation":[
				0,
				5,
				0
			]
		}
	],
	"materials":[
		{
			"doubleSided":true,
			"name":"Material.001",
			"pbrMetallicRoughness":{
				"baseColorFactor":[
					0,
					0.8015002012252808,
					0.029878998175263405,
					1
				],
				"metallicFactor":0,
				"roughnessFactor":0.5
			}
		}
	],
	"meshes":[
		{
			"name":"Text",
			"primitives":[
				{
					"attributes":{
						"POSITION":0,
						"NORMAL":1,
						"TEXCOORD_0":2
					},
					"indices":3,
					"material":0
				}
			]
		}
	],
	"accessors":[
		{
			"bufferView":0,
			"componentType":5126,
			"count":20564,
			"max":[
				7.651999473571777,
				0.25,
				5.008999824523926
			],
			"min":[
				0.017000000923871994,
				-0.25,
				-0.6820000410079956
			],
			"type":"VEC3"
		},
		{
			"bufferView":1,
			"componentType":5126,
			"count":20564,
			"type":"VEC3"
		},
		{
			"bufferView":2,
			"componentType":5126,
			"count":20564,
			"type":"VEC2"
		},
		{
			"bufferView":3,
			"componentType":5123,
			"count":60264,
			"type":"SCALAR"
		}
	],
	"bufferViews":[
		{
			"buffer":0,
			"byteLength":246768,
			"byteOffset":0,
			"target":34962
		},
		{
			"buffer":0,
			"byteLength":246768,
			"byteOffset":246768,
			"target":34962
		},
		{
			"buffer":0,
			"byteLength":164512,
			"byteOffset":493536,
			"target":34962
		},
		{
			"buffer":0,
			"byteLength":120528,
			"byteOffset":658048,
			"target":34963
		}
	],
	"buffers":[
		{
			"byteLength":778576,
			"uri":"Thoday.bin"
		}
	]
}
